<?xml version="1.0" encoding="UTF-8"?>
<svg id="Ebene_2" data-name="Ebene 2" xmlns="http://www.w3.org/2000/svg" viewBox="0 0 1135.7 586.73">
  <g id="Ebene_1-2" data-name="Ebene 1">
    <g>
      <g>
        <path d="M303.46,437.51h12.06v91.23h33.96v17.01h-46.02v-108.24Z" style="fill: #fff;"/>
        <path d="M359.03,437.51h12.06v108.24h-12.06v-108.24Z" style="fill: #fff;"/>
        <path d="M446.33,437.51v108.24h-9.93l-35.81-73.3v73.3h-11.97v-108.24h9.93l35.81,73.3v-73.3h11.97Z" style="fill: #fff;"/>
        <path d="M512.48,528.9v16.85h-48.71v-108.24h47.41v16.86h-35.35v28.14h31.36v16.55h-31.36v29.84h36.65Z" style="fill: #fff;"/>
        <path d="M525.38,498.59v-61.08h12.06v60.31c0,22.27,6.03,31.85,16.51,31.85s16.42-9.59,16.42-31.85v-60.31h11.88v61.08c0,31.54-10.67,48.71-28.39,48.71s-28.48-17.16-28.48-48.71Z" style="fill: #fff;"/>
        <path d="M653.5,476.01c0,23.81-10.58,38.5-27.65,38.5h-14.66v31.24h-12.06v-108.24h26.72c17.07,0,27.65,14.54,27.65,38.5ZM641.35,476.01c0-13.61-5.47-21.49-16.05-21.49h-14.1v42.99h14.1c10.58,0,16.05-7.89,16.05-21.49Z" style="fill: #fff;"/>
        <path d="M692.1,437.51h12.06v91.23h33.96v17.01h-46.02v-108.24Z" style="fill: #fff;"/>
        <path d="M790.25,520.7h-32.47l-6.4,25.05h-12.43l29.22-108.24h11.88l29.32,108.24h-12.62l-6.49-25.05ZM786.26,504.93l-12.25-47.32-12.15,47.32h24.4Z" style="fill: #fff;"/>
        <path d="M875.32,516.37c0,18.56-8.72,29.38-25.42,29.38h-32.29v-108.24h30.43c15.59,0,23.94,10.98,23.94,28.14,0,11.13-3.34,19.33-8.35,23.81,6.96,3.71,11.69,12.83,11.69,26.91ZM829.68,453.28v29.84h17.07c8.35,0,13.08-4.95,13.08-14.84s-4.73-15-13.08-15h-17.07ZM863.17,514.36c0-10.82-4.92-15.62-14.01-15.62h-19.48v31.24h19.48c9.09,0,14.01-4.79,14.01-15.62Z" style="fill: #fff;"/>
      </g>
      <g>
        <path d="M415.14,335.51c-2.54-3.82-3.78-6.93-4.53-11.28-1.05-6.13,5.6-4.76,7.35-9.01,6.21-13.86-.12-8.53,12.76-18.84,10.67-9.97-14.06,7.14-20.02-2.32l4.12-2.29s-.2-12.85-.2-12.85c-1.22-2.39-4.71-11.39-5.76-14.04l4.41-9.04c7.8-1.48,11.4-11.39,13.04-18.34,3.97-12.22-8.92-18.82-15.56-27.7-.99,3.98,1.7,8.86,2.85,12.34,2.1,5.72,6.66,18.91-1.26,22.46-4.53,2.03-12.9.59-17.82-5-1.61-2.91,2.37-8.51,3.36-11.34,0,0-7.34.91-7.34.91-3.84-.19-9.25-1.93-12.91-3.25-9.92-5.78-13.54-5.06-21.56-15.29-3.11-3.01,2.77-6.11-1.65-10.36-9.36-8.91-14.45-13.65-21.18-24.65-.22-.34-2.03-.08-2.02.13l1.31,4.08c3.36,10.43,1.06,13.33,5.32,20.76,2.86,4.25,5.21,8.71-.61,12.16-.18,3.12,2.6,9.87,3.56,12.82,1.13,5.01-.2,14.48-.11,19.76-.18,11.53-7.6,9.01-14.24,14.03l-6.41-.94c-1.27,10.56,3.98,9.92,10.71,14.97,16.87.66,8.38,21.71,4.29,31-3.34,11.79-35.31,18.06-24.98.84,3.49-3.44-2.62-1.68-3.87-11.74-1.53-9.01-1.44-18.72-.62-27.71-4.01-5.55-2-2.85-2.84-13.1-1.3-13.17-1.46-28.43-4.27-41.41-2.37-13.59,1.46-5.36-1.13-15.62-.82-3.61-2.62-9.42-2.96-12.97-.25-3.95-.55-12.13-1.62-15.93-2.83-13.46-5.59-28.4-6.22-42.14.25-4.88-1.54-26.16.2-30.33,5.71-14.37-1.07-5.58,10.54-20.26,7.4-8.71,13.64-21.04,27.42-21.5,0-.22-.05-1.62-.05-1.69-14.72-.91-28.58,5.93-40.29,14.47-5.31,2.99-16.26,7.85-21.85,10.83-13.43,6.66-9.82,1.16-18.3,7.87,5.82.91,12.89-.16,16.42,6.1,1.22,9.97-.58,16.41-6.41,25.78-2.94,6.16-8.56,13.86-12.35,19.58-1.99,2.92-12.42,17.13-16.71,15.08-1.98-.94-5.14-3.54-6.83-4.95-5.22-4.39-14.11-11.29-18.46-16.58-3.5-3.73-9.87-6.54-13.85-10.1-3.06-2.62-10.61-9.71-13.61-12.51-14.67-14.18-31.94-31.07-45.66-46.28-8.95-10.02-20.95-18.29-31.7-26.25-8.62-6.68-19.46-13.57-29.34-18.29-7.64-2.35-16.25-5.61-24.11-7.46-6.42-1.98-14.37-2.24-20.88-4.08-3.63-.92-7.5-1.36-11.34-1.92C6.47,1.71,3.66-1.76,0,1.16c4.33,4.03,13.11,7.05,18.28,9.88,10.44,5.03,11.7,7.22,17.32,10.05,6.28,3.17,15.11,7.45,11.86,16.8,2.21,4.01,2.93,13.65.61,17.88-3.48,6.37-8.3,4.93-16.86,11.93-.75.62-10.17,8.57-6.04,8.61l13.01-4.48c19.26,5.65,23.26,28.35,20.4,45.81-1.3,13.83-8.19,14.42-17.06,23.07-2.43,2.91-5.86,9.28-.85,6.13,15.62-10.57,22.27,8.6,26.07,20.43,1.38,3.92-1.31,11.66-2.21,15.53.27,16.42-5.31,14.37-6.63,25.72l-2.51,5.99c-.06,12.02-1.14,6.26,2.22,15.87.13.38.85,1.16,1.12,1.45,2.78,3.05.75-9.76,2.1-12.93,1.45-3.21,5.34-12.78,6.76-15.84,3.74-10.13,4.6-7.35,10.17-19.93,4.92-11.12,5.62-7.5,8.75-15.48,5.62-14.31,9.03-13.48,12.78-18.81,2.11-3,4.32-5.95,7.77-7.2,17.02-7.01,22.03-1.1,24.82,15.17,2.68,11.05,2.96,5.22,4.16,14.71,1.68,13.32-1.43,7.9,1.61,15.37.19,3.2.88,10.6,1.05,13.73,2.73,8,1.1,17.07,3.54,24.89,1.52,7.95-9.23,9.13-2.95,10.61,7.6,2.94,4.87,9.32,7.28,18.06,4.33,11.06,1.15,16.48,1.95,30.95.57,8.21,2.15,17.17,3.33,25.25,0,0,.33,17.73.33,17.73,1.29,5.31,2.19,11.41,2.37,16.9,4.7,3.53,7.09,8.72,8.92,13.89,3.64,7.02-3.54,10.9-8.16,14.58-3.53,2.23-11.04.97-15.15,1.6-10.86.81-21.92-.68-32.28-3.21-6.6-1.8-16.28-4.93-22.17-8.36-3.93-1.81-6.81-7.13-8.74-10.72-.27-.47-2.42-1.19-2.45-.71,1.36,10.39-11.1,14.39-9.22,16.4,11.55,11.31,14.76,29.84-.2,40.87,2.7,1.08,6.71,2.25,9.58,2.39l4.65,4.58c1.01.99,2.05,4.29,2.02,5.87-.01.62,1.82,1.44,2.09.89,0,0,1.03-2.07,1.03-2.07,5.59-14.1,21.09-18.86,34.63-21.52,6.98-.87,14.92-2.88,22.03-1.82,15.11-.75,15.29-.5,23,12.48,0,0-.2,24.76-.2,24.76-.24,3.29-2.59,10.63-3.42,13.87-5.58,20.27-28.07,21.14-18.42,24.48,0,0,4.42,1.53,4.42,1.53,7.96,1.57,9.02,19.49,12.88,10.34.72-1.42,2.15-4.43,3.46-5.2,3.75-2.13,10.93-7.03,15.3-7.48,8.36-1.76,18.57-1.32,27.66,3.62l9.67,6.37,1.83-1.88c-4.27-8.87,4.27-13.83,9.23-17.78-2.17-1.79-7.79-2.81-10.46-3.3-7.12-3.59-12.75-12.24-16.53-19.21-2.81-5.6-3.37-13.12-5.27-19.13,0,0,.14-22.1.14-22.1,3.73-7.82,15.04-8.83,22.69-7.37,7.46,1.01,17.85,2.95,25.25,4.27,5.96,1.59,14.16,5.51,19.84,8.13l6.13,3.04c4.11,2.04,6.41,7.34,7.09,4.98,3.68-15.78,9.39-10.52,15.52-16.32-11.82-4.92-12.4-18.41-10.44-28.58.97-9.03,16.55-15.84,7.4-15.84-8.08-1.89-8.03-2-11.93-8.07-.49-.77-3.05-2.42-3.65-1.76-2.87,3.29-6.8,7.84-10.74,9.88-7.59,5.31-21.71,9.35-31.43,11.69-7.36,1.88-17.3,4.37-24.87,4.4-3.85.29-16.94-.7-17.09-4.42-.59-14.3.47-9.01,2.74-16.72,0,0,1.91-6.5,1.91-6.5,1.32-6.32-1.2-14.19-1.37-20.53-.26-12.57-1.57-28.52-1.38-41.09.65-9.45-3.29-14.66-1.76-27.92,18.71,4.49,37.66,13.78,54.87,22.05,10.2,4.86,23.34,9.72,32.34,16.62,4.55,4.22,10.07,8.24,13.65,12.81,2.44,3.12,3.2,5.79,6.94,7.65,13.53,10.2,9.6,29.9,8.36,45.02-.67,7.36-4.21,8.32-1.21,10.49,4.84-6.12,6.67-12.59,7.65-19.75,2.29-12.16,1.99-2,3.52-12.27l-3.65-1.48-1.69-7.18,3.55,1.06c.97,1.37,1.17,2.07,1.68-.2l-.59-4.87c8.97-1.1,8.53,3.42,15.33,6.97,0,0,11.67,6.09,11.67,6.09,5.35,6.52,12.11,17.91,18.98,23.05.88-.65,1.1-2.77.47-3.75,0,0-6.54-10.03-6.54-10.03-.4-.98-4.11-5.25-3.74-5.97,5.76-.74,15.39,3.24,21.15,3.43,16.21,1.86,23.72,3.67,35.98,15.17l3.4-2.55c1.13.23,4.5,1.36,5.51,2.54,2.47,2.89,8.07,9.46,10.48,12.29l.86-3.1-9.02-14.49c-5.97-9.6-.31-10.16-3.11-14.39ZM78.28,130.9c-6.04,3.75-17,6.79-23.66,9.45l-1.37-2.28c.08-1.97,8.91-4,10.28-4.85,3.09-1.15,9.37-3.5,12.47-4.66,2.03-.08,3.51-.72,2.28,2.34ZM137.07,107.21c-3.8-2.42-20.86-13.3-24.28-15.38,0,0-5.3-3.21-5.3-3.21-.26-.16-.77-1.63-.79-1.59-1.31,1.19-6.22-2.11-7.44-2.52-12.16-6.51-25.82-10.99-39.2-14.13-1.29-.32-2.57.69-5.85-1.26-.48-.28.46-2.45.97-2.26l5.17,1.94c2.33.88,2.82-2.58,14.97,1.84l9.6,3.49c6.45,2.34,12.24,5.21,18.37,8.59,4.87,2.69,6.35,1.69,8.43,5.3,3.09.95,7.19,3.5,9.83,5.31,3.71,2.99,17.45,9.5,18.49,14.77-.75-.17-2.53-.61-2.97-.89ZM272.76,259.5c-26.37-5.61-54.17-10.63-80.7-15.06-6.83-.66-5.83-9.14-6.45-14.11,0,0-.9-12.81-.9-12.81-1.15-3.63-2.32-11.17-2.49-14.98-.9-9.27-1.61-20.02-3.46-29.12-.72-6.39-4.21-13.4-1.43-19.92-.75-2.18-5.09-10.94.92-6.84,3.92,3.25,11.96,9.85,15.86,12.96,14.63,12.35,30.29,24.9,33.3,44.65,1.17,8.27,2.94,20.07,6.07,27.81,1.43,4.06,3.02,12.5,6.96,15.25.65.53,1.57-2.12,1.27-2.88-3.14-7.9-3.19-11.28-3.76-20.02-.21-9.97-3.11-22.23.42-31.77,1.14-6.61,4.15-13.82,7.37-19.71,5.09-10.24,4.61-8.41,12.6-17.15.91-.99,6.33-8.47,6.47-4.19l.4,11.99,2.18,7.75c.17,2.86.63,8.83.93,11.71l.85,9.64c.67,7.61,1.03-1.35,1.35,7.88l.24,7.05c.27,7.84,2.76,5.53,2.98,10.65.21,4.98.44,9.47.98,14.1.45,3.98,1.42,12.05,1.82,16.03,0,0,.74,8.78.74,8.78.09,1.06-3.23,2.56-4.54,2.29ZM387.21,266.16l2.71,7.31-2.69,3.11c-1.34,1.41-1.76,1.78.31,3.18,5.94,3.98-.78,5.37,5.45,14.9-.94,4.09-7.03,8.55-10.05,11.43-.79.71.94,3.81,1.99,4.2,12.73,6.64,2.46,21.74-8.94,20.1-15.33-.66-8.19-18.06-9.65-27.13-1.12-4.02-.18-10.75-5.3-12.43l-.24-16.53-2.02-4.68.09-21.39c.01-3.39,2.34-6.52,6.19-6.87,1.76-.16,5.38,1.62,6.98,1.33,5.13-1.03,12.48-3.01,16.22,2.2,9.16,15.72,14,13.03-1.05,21.26Z" style="fill: #fff;"/>
        <path d="M695.17,391.67s0,0,0,0c-.15.16-.18.2,0,0Z" style="fill: #fff;"/>
        <path d="M682.43,370.74c-3.99-1.94-1.52.03-5.01-11.08-.79-2.52-8.08-1.87-6.46-7.98.35-1.31,1.26-4.34.44-5.18-6.4-6-7.99-8.09-8.35-16.98l3.8-7.06-4.5-8.4c.56-1.87,3.17-4.65,4.75-6.21,2.15-2.12-.56-6.85-3.31-6.92-15.7.51-5.22-21.07-3.01-29.36.03.02-1.19-.66-2-1.12-6.05.57-6.13-7.45-7.33-11.28,10.25-7.76,11.96-21.8,17.21-32.72,2.85-6.76,8.13-12.34,12.09-18.52,5.08-6.14,13.82-11.7,19.91-17.06-.17.14,8.85-.25,13.41-9.27-12.01,1.6-32.39,18.89-40.32,27.14-2.71,2.82-10.95,8.06-15.33,8.02-4.44-2.56-6.4-2.98-11.91-2.72-4.85-.47-.4-10.72-2.56-9.51,0,0-13.37,18.87-13.37,18.87-3.91,4.44-9.84,4.49-10.36-1.9l-5.44.12c-1.78.04-4.34,5.72-5.2,3.86-1.2-4.1-3.15-2.93-7.04-2.49-13.78,1.38-20.19,1.79-28.26-10.85-.6,11.24,3.77,15.15,15.1,16.75l19.13,3.5s.04,4.71.04,4.71c1.96,4.14,5.94,12.16,9.35,15.26l.1,5.54c2.63,4.31,7.6,9.25,8.57,14.2.85,7.58,3.91,17.72-3.6,22.45.38,19.89-3.99,14.01-3.75,26.02-.56,6.92-4.33,6.54-5.79,10.89,0,0-4.35,12.9-4.35,12.9.41,10.76-3.11,16.52-12.45,22.55-4.57,3.23-13.76,9.69-18.35,12.95-5-1.34-10.02-4.05-12.23-9.12-1.98-3.91-6.93-1.13-6.73-6.18.22-5.62-.71-7.35-8.04-9.82-9.96-5.26-21.41-10.78-24.91-22.48,6.58-8.79,13.9.28,15.99-3.06-12.37-7.7-18.45-2.24-30.52-13.97-6.6-7.59,18.14-9.68,22.27-9.25.42-1.58,2.28-4.69,3.7-4.71,8.04-.13,7.79,12.65,10.24,11.31,1.54-.84,3.28-5.04,2.53-6.53,0,0-4.05-3.63-4.05-3.63-18.58-14.8-25.17-41.53-6.7-59.2,0,0-16.25,7.96-16.25,7.96-7.78,2.49-15.59-8.96-5.59-12.35l7.12-.74c-2.16-1.37-9.21-3.24-8.68-6.8,1.16-3.89,6.29-2.71,9.23-2.84,3.48-1.24,1.34-1.85-.25-3.18-10.15-8.06-25.91,18.2-34.02,14.89-1.74-3.6-5.22-10.86-6.97-14.47l-5.45-5.38c-3.66-3.61-5.24-12.18-7.39-10.66.01,18.78.26,32.05-15.75,44.78-4.79,6.93-1.56-11.78-4.82-14.58-2.2,7.92-7.28,18.99-1.02,26.34,7.23,9.49,8.45,4.87,8.69,13.11.15,11.4,2,34.29-1.46,45.12-2.08,4.49-10.43,22.01-14.93,21.13-2.78-.44-9.59-6.62-11.97-8.26-.31-.24-2.6,0-2.42.35.21,1.12,5.65,7.51,6.41,8.52,2.2,3.06.77,14.79,1.08,18.46-.01,1.34,3.21,2.98,4.43,2.58,0,0-.81-5.35-.81-5.35-.82-4.62,4.29-8.66,8.04-5.97,6.26,12.88,8.75,24.34,9.14,38.27.06,2.3-.05,2.96,2.02.93,0,0,1.93-6.62,1.93-6.62,1.73-6.49,4.94-14.72,6.57-21.1.87-11.53,14.22-14.9,23.78-9,3.25,1.75-.31,3.08,9.91,9.44l6.06,3.77.12-2.67c-2.89-3.53-8.39-9.5-9.57-14.12-1.14-2.45-3.73-5.45-3.05-8.14.62-2.43.99-5,.19-6.68-1.79-5.57-13.36-22.39-9.25-27.08,2.06-1.92,7.32,1.29,9.33,1.81,8.81,2.4,14.14,9.88,17.7,17.67,2.88,5.21,8,.99,9.74,7.95,1.84,7.38,3.24,4.31,9.82,13.51,6.13,8.56,1.75,4.98,7.99,11.86,3.84,4.23,7.41,8.35,6.03,14.67,3.08,3.9,6,6.94,10.55,10.64,3.52-1.92-5.24-7.76-1.78-10.34,1.56-1.16,5.78-3,7.67-2.41l12.91,4.08c.12,4.33-3.72,11.2-5.29,14.97,3.63-.5,6.06-3.95,8.32-6.07,10.18-10.66,23.09-21.05,36.14-27.87,32.22-16.76,72.12,10.33,32.07,10.26,4.61,3.48,10.57,2.93,15.64,3.81,0,0,8.95,1.08,8.95,1.08,13.84,1.15,14.31,6.71,24.49,13.21.26-.29.86-.96,1.27-1.41-2.74-7.03-6.27-16.49-14.01-19.52ZM481.68,290.64c-2.82-9.52-5.58-16.56,2.63-23.6,4.08-7.32,11.32-16.67,20.53-17.02,5.55,6.18,1.56,12.79,3.48,21.09,1.07,4.61,6.4,16.37,6.47,22.63l-3.06,6.56c-6.02,9.9-27.8,1.48-30.05-9.66Z" style="fill: #fff;"/>
        <path d="M812.28,320.29c-7.49-5.96-16.41-13.25-12.33-23.36.79-8.84,2.37-18.66,3.36-27.56.26-14.15-6.63-22.97-4.28-27.05,3.58-5.51,6.2-14.76,14.95-12.61l1.64-1.76c-12.79-17.38,16.79-26.31,28.63-31.75,5.34-2.82,3.8,4.09,7.39,4.15,4.38-2.08,10.32-10.25,16.68-3.31,5.54,6.34,8.04,16.57,11.4,24.22,5.84,1.99,2.49-7.77,4.63-10.14,5.63-4.62,8.56-4.1,10.22-8.24-3.92-.89-10.28-2-12.88-5.04-.16-17.29-4.12-15.46-9.34-18.21-9.2-4.86-1.77.94-14.25-1.67-5.1-2.13-.28-10.08.62-13.39-5.43-.5-1.97.07-9.22,7.99-.96,1.05-4.21,1.22-4.96.18-4.75-8.59-21.06-11.06-29.35-14.08-7.22-.04-.71,5.69,1.05,8.16l.03,4.38c4.24-1.48,6.93-3.42,11.71-1.04-4.6,13.7-15.71,25.29-24.39,36.02-.66.8-3.26-1.19-3.76-2.12-2.4-4.47-10.32,2.31-21.45-6.02l-5.07,3.74-2.1-2c3.73-2.85,7.62-7.98,6.14-13.02l-5.82-14.94c-.79-2.03-2.24-3.37-4.9-3.31.43,3.1,3.53,10.62,4.59,13.51,1.67,4.47-.62,2.84-4.2,9.82-8.49,16.18-9.42,27.21-29.68,14.47,0,0-2.29,6.77-2.29,6.77-1.7,3.74-7.54,1.35-9.2-.62l-3.58-5.34-7.42-9.77c-1.32-1.74-7.09-1.4-9-.85,4.56,4.38,8.99,10.16,3.09,15.6-5.37,3.37-10.63,6.54-17.25,7.84,0,0-4.96,9.65-4.96,9.64-2.3,4.19-5.88,7.68-.55,6.35,3.53-1.77,8.72-4.96,12.91-4.06,13.13,1.84,12.45,9.15,16.51,6.95,4.43-2.4,25.68-15.63,27.57-6.06l1.52,7.7c.25,1.27-.66,4.21-1.38,5.31-1.91,3.51-9.07,11.9-8.6,16.46,5.47-3.8,9.18-9.58,13.67-14.26,1.67-1.97,1.79-2.65,3.82-.11,4.54,5.98,10.13-1.34,15,3.11,1.83,1.04-2.5-7.17-1.17-13.72,1.16-4.16,1.66-13.32,4.94-16.84,7.47,16.37.83,33.47,13.14,48.3-2.88,4.33-6.42,9.08-9.81,13.22-3.18,4.15,10.26,16.67,9.98,24.53.36,3.29-1.9,6.86-3.88,9.65-3.5,4.93.29,10.15-14.28,24.56-1.17,1.16-3.37,3.43-3.75,4.75-2.85,10.05-2.46,15.43-9.94,24.62-.56.68-1.13,2.59-1.33,3.69,17.73-2.16,7.93-13.36,13.1-18.08l5.86-2.35c4.76-1.91,10.22,12.31,12.07,16.22,3.72,7.84,3.87,3.84,3.86,7.5l-.02,8.94c1.92-1.95,5.84-5.94,7.75-7.88-.45-13.2-.6-17.11,3.54-29.23,2.53-3.64,17.59,8.56,20.26,14.59.66-3.47,1.19-8.89,4.73-10.98-13.18-8.12-29.8-19.53-9.99-32.19Z" style="fill: #fff;"/>
        <path d="M1066.63,26.38c11.75-7.94,21.97-11.14,35.09-14.94,3.15-1.13,7.13-2.12,10.6-1.18,4.58-1.61,9.51-4,14.61-3.25.54-.02-.65-3.12-1.49-2.97,0,0-5.97,1.1-5.97,1.1-6.59,1-18.87,3.77-25.35,5.75-16.7,4.94-31.77,13.05-44.79,24.48,3.01,1.75,14.79-7.99,17.29-9Z" style="fill: #fff;"/>
        <path d="M1135.32,380.89c-6.44-3.04-9.03-7.55-10.36-14.59-1.66-7.47-.65-1.93.28-11.13.95-9.43,2.71-9.35,10.26-17.43-5.09-1.77-11.25-3.51-14.15-8.6-3.67-7.81-9.29,11.08-34.87,16.25-12.4,3.81-49.43,14.51-56.19.18-.42-9.72-2.87-23.78-1.73-32.74,3.3-.77,8.12-2.02,10.37-3.05,1.16-.53,1.34-4.32,1.71-5.61,6.05-15.5-4.1-27.71,16.31-25.84.97-6.56,7.66-2.37,9.24-6.88.7-5.39-8.88-4.04-11.9-4.78-2.3-.22-5.72-1.18-7.73-2.28-.5-9.96,2.41-11.59-9.22-10.86-6.43,16.83-15.94,55.62-40.9,41.8l-6.12,1.71-4.01,7.98c-5.27-.31-27.1-.92-32.77-1.05-11.28-.32-39.68-11.51-35.07-16.7l4.85-5.47-1.07-3.6c2.86-6.99,6.17-14.91,7.99-22.22,2.08-12.06,9.67-19.78,19.88-25.37,7.32-4.49,19.25-20.74,19.83-20.1.23.26,1.12,1.25,1.22,1.62,1.41,4.89,3.52,13.78,6.47,17.83l1.61-.2c1.14-9.81,2.65-21.51,3.96-31.29,1.27-13.98,8.94-27.69,20.97-36.19-.27-6.21,2.1-6.12,10.08-6.12,2.75-.13.08-6.16,5.08-5.93,8.18.39,14.96-2.28,21.11-8.2,6.72,7.61,14.79,14.44,18.31,24.21,4.78,11.71,3.43,4.48,8.91,16.22,5.81,11.96,8.6,15,13.11,26.44l3.98,9.5c1.43,3.4.36,8.4.88,13.15,4.8-3.22,4.15-15.16,3.38-18.01-1.81-3.73-3-9.54-4.47-13.18-6.27-10.41-1.81-13.29-4.47-19.35-1.65-3.75-3.12-10.13-2-13.41,3.02-9.72,5.45-17.86,14.29-24.17,3.37-1.93,9.47,1.92,12.79,2.86l.49-2.7c-5.88-7.88-17.61-11.71-18.78-22.59-1.72-11.4-1.78-10.55-1.46-23.27,4.73-8.84.9-4.96,4.7-12.04,1.64-3.04,3.65-5.84,6.2-7.93,7.22-7.4,12.03-6.71,21.59-2.53.5-.09,1.47-.57,1.89-.91-11.27-15.97-31.25-9.85-22.37-36.49l-1.09-5.18c3.37-8.59,13.31-11.83,20.26-16.64.53-.33,2.23-1.72,1.64-1.91-1.95-1.31-6.06.72-7.91,1.31-11.46,4.04-26.3,6.92-37.59,11.77-8.63,4.3-24.21,13.2-28.94,21.81-3.76,1.19-7.81,5.05-10.49,7.72-6.8,5.78-8.9,6.74-16.38,15.46,0,0-8.38,8.64-8.38,8.64-3.35,3.38-14.71,19.07-14.25,9.81,8.1-8.45,19.11-20.25,27.17-28.73,5.1-5.36,11.89-10.87,17.49-15.8l7.98-6.51c.34-.28.33-2.19-.07-2.03-16.97,9.11-31.19,26.42-44.35,40.32-1.27,1.14-5.81,7.12-7.79,6.94-2.1-1.51,2.95-5.84,3.63-7.03,2.94-8.62,9.3-26.72,12.53-35.12l-7.99.09c-4.63,16.52-12.59,25.71-22.17,39.03-.53-.41-1.77-1.48-1.87-1.75-2.53-6.05-6.33-19.76-8.42-25.39-4.76-9.49-12.04-13.13-20.3-19.1-.86,1.37-2.15,3.63-2.7,4.79,9.97,4.8,15.2,13.15,18.41,23.13,1.01,3.08,3.13,9.56,2.52,12.63-5.74,2.2-1.83.69-9.22,10.17-2.37,3.48-4.55,8.92-6.89,12.66-1.87,3.35-12.68,6.58-13.91,5.58-5.41-4.5-13.8-11.35-19.76-14.83l-3.58-.21-1.19-3.87c-1.78-1.49-2.77-2.72-3.72-4.59-6.69-13.2-22.91-21.82-37.42-20.77-2.37.32,5.23,4.5,5.45,4.62,6.8,3.74,17.63,6.82,13.62,17.04-1.98,5.65-2.74,1.22-9.62,6.05-7.21,5.06-3.12,6.51-9.51,7.78-10.54-.56-30.59,14.88-39.18,19.81-3.28,1.98-15,8.55-17.78,10.8,6.58,1.98,17.62-3.63,23.36-5.58,11.32-4.24,25.12-10.1,37.45-6.71,5.87,3.13,15.12,8.12,20.18,12.33,8.4,1.97,15.89-5.28,19.48-3.32,0,0,8.04,4.38,8.04,4.38,10.31,11.26-6.11,35.68-18.73,39.13l.37,7.29c11.21-4.74,23.17-14.01,32.58-21.41l3.59,1.04c5.84-6.72,15.38-8.76,22.94-12.44l3.29-12.33,3.69,1.34c3.39,1.24,10.03-.76,9.89,3.36l-.28,8.14s-6.8,10.98-6.8,10.98c-24.15,43.72-30.92,31.06-57.27,62.57-22.41-.71-20.07,22.47-27.22,34.03-1.72,2.78-4.8,5.55-7.34,7.53-2.18,1.7-2.93,7.72-6.11,9.75-12.43,7.78-17.84,9.83-19.59,25.55-7.72,5.53-6.45,8.67-14.12,11.34l-8.49-6.24-6.45,1.89-.47,5.4-6.12,4.18v24.84s11.48,7.01,11.48,7.01c.84.52,1.94,3.42,2.8,3.49l6.01.5c.99.08,2.95-2.06,2.62-2.97l-2.7-7.45c-2.23-6.15,3.13-11.56,7.87-12.4,3.55.57,4.96,9.61,6.28,12.24,9.7,25.28,12.06,53.48,1.75,79.03l5.67.05c6.77-14.84,10.61-33.45,13.87-49.38,3.06-15.66,6.36-32.82,15.12-46.41l5.75.07,5.28-6.61,10.9,7.04c1.75-2.21,4.34-9.54,8.29-6.66-5.59,10.88-5.17,7.17,7.15,12.75,21.9,10.18,5.99,1.46,23.82,4.48,6.02,1.81,12.85,1.36,18.98,1.54l6.08.03c6.57.04,7.6-2.68,11.07-3.23,7.2-1.15,11.38-.37,16.01-3.63.77-.54,3.78.33,3.72,1.24,0,0-.33,5.13-.33,5.13,2.54,7.65,1.73,18.81-.85,25.79l-3.63.38c-1.47,1.4-4.85,4.55-6.85,4.58,0,0-19.21.31-19.21.32-17.38-.34-41.52-3.92-53.89-16.98.68.56-6.41-12.37-4.66-3.62.71,6.56-6,9.39-8.84,12.95-.5.62,1.98,2.23,2.45,3.09,8.42,12.58,11.82,27.63-2.65,38.39l5.06,1.77c4.35,1.52,4.81-5.06,6.07-4.24l2.52,1.66c-.87,1.38-2.58,2.77-4.09,3.33-.68,1.61,5.35,4.11,6.07,4.93,1.19.74,5.04-.54,5.94-1.6,6.02-7.09,3.08-4.41,9.44-7.83,8.72-5.57,19.46-8.05,29.63-8.9,5.07-1.72,12.8-1.47,17.98-1.08,0,0,8.81.07,8.81.07,9.29,4.45,12.24,12.54,11.46,21.87-.24,7.03.45,19.17-2.38,25.78-6.09,29.47-37.37,22.52-11.76,30.98l2.78,4.41c3.52,5.58.95,6.57,3.51,6.96,1.99.27,2.7-3.82,3.26-5,14.53-14.78,39.58-14.58,54.48-.81,5.11,2.23,1.07-3.59,1.11-5.87.57-4.28,5.18-9.47,10.24-12.74-8.31-4.16-7.77.75-15.82-7.54-10.61-9.61-15.72-24.91-15.98-38.9.04-3.69-.24-13.01-.19-16.59,4.37-11,19.5-9.89,29.51-7.82,3.2.67,11.59,2.27,14.75,2.56,8.16,1.68,17.15,5.54,24.58,9.22,3.04,1.52,8.18,3.8,10.27,6.68,3.7,4.15,1.95-3.58,5.75-7.62,5.75-6.12,13.63-5.7,11.42-6.95ZM1094.07,138.23l-2.44,2.61c-7.49-2.62-18.71-6.49-25.88-9.83-5.54-2.21-16.13-4.79-21.14-7.69,1.14-2.42,1.7-2.46,3.88-1.66,0,0,7.96,2.44,7.96,2.44,6.82,1.87,16.77,5.43,23.3,8.01,4.35,1.69,10.15,3.51,14.33,6.11ZM1005.53,105.4c7.97-6.19,18.42-12.25,26.76-17.94,7-4.63,3.11-1.31,10.45-5.28,6.01-4.44,20.14-9.17,27.16-11.76,5.12-1.34,34.82-9.1,36.46-1.04-31.74-.6-60.7,13.85-86.7,30.7-5.11,3.11-17.03,13.25-14.12,5.32ZM1019.47,129.92c11.26-2.15,24.49,3.53,32.1,11.78,9.61,11.05,14.1,19.58,19.63,33.11.42,1.01,7.33,16.18,2.26,13.59l-2.9-6.47c-10.32-17.95-19.05-46.26-43.73-48.11-14.56-.02-13.98,19.28-22.68,16.34,2.88-7.75,5.91-18.02,15.3-20.24Z" style="fill: #fff;"/>
      </g>
    </g>
  </g>
</svg>